<?xml version="1.0" encoding="UTF-8"?>
<svg id="Layer_1" data-name="Layer 1" xmlns="http://www.w3.org/2000/svg" xmlns:xlink="http://www.w3.org/1999/xlink" viewBox="0 0 1255.57 154.32">
  <defs>
    <style>
      .cls-1 {
        fill: #101820;
      }

      .cls-2 {
        fill: none;
        stroke: url(#linear-gradient);
        stroke-miterlimit: 10;
        stroke-width: .75px;
      }

      .cls-3 {
        fill: #a8965e;
      }

      .cls-4 {
        clip-path: url(#clippath);
      }
    </style>
    <clipPath id="clippath">
      <rect class="cls-1" x="-443.18" y="-26.21" width="262.34" height="262.34" rx="40.76" ry="40.76"/>
    </clipPath>
    <linearGradient id="linear-gradient" x1="-895.32" y1="793.63" x2="365.43" y2="-491.59" gradientUnits="userSpaceOnUse">
      <stop offset="0" stop-color="#d32234"/>
      <stop offset=".19" stop-color="#b11d3d"/>
      <stop offset=".61" stop-color="#5d1356"/>
      <stop offset="1" stop-color="#090970"/>
    </linearGradient>
  </defs>
  <g>
    <path class="cls-3" d="M206.58,154.32h-37.39c-.92,0-1.81-.3-2.55-.85l-80.84-60.58c-1.47-1.1-3.48-1.13-4.99-.08l-48.37,34c-1.13.79-1.8,2.09-1.8,3.47v19.79c0,2.34-1.9,4.24-4.24,4.24H4.24c-2.34,0-4.24-1.9-4.24-4.24V4.24C0,1.9,1.9,0,4.24,0h22.16c2.34,0,4.24,1.9,4.24,4.24v77.99c0,3.43,3.87,5.45,6.68,3.48L158.52.77c.71-.5,1.56-.77,2.44-.77h38.79c4.15,0,5.83,5.34,2.44,7.72l-87.59,61.45c-2.37,1.66-2.42,5.15-.1,6.88l94.63,70.64c3.27,2.44,1.54,7.64-2.54,7.64Z"/>
    <path class="cls-3" d="M285.49,104.44V3.8c0-2.1,1.7-3.8,3.8-3.8h23.26c2.1,0,3.8,1.7,3.8,3.8v100.42c0,10.46,8.56,19.02,19.02,19.02h105.46c2.1,0,3.8,1.7,3.8,3.8v23.48c0,2.1-1.7,3.8-3.8,3.8h-105.46c-27.43,0-49.88-22.45-49.88-49.88Z"/>
    <path class="cls-3" d="M938.76,154.32h-123.24c-25.57,0-46.3-20.94-46.3-46.3v-61.68c0-25.6,20.75-46.35,46.35-46.35h123.19c25.79,0,46.3,20.72,46.3,46.3v61.73c0,25.35-20.5,46.3-46.3,46.3ZM815.53,123.24h123.24c8.82,0,15.65-6.83,15.65-15.21v-61.73c0-8.38-6.83-15.43-15.65-15.43h-123.24c-8.6,0-15.43,7.06-15.43,15.43v61.73c0,8.38,6.83,15.21,15.43,15.21Z"/>
    <path class="cls-3" d="M1070.43,45.09c-.7,9.16,6.62,16.64,15.39,16.64h122.42c26.82,0,48.68,21.96,47.27,48.73-1.28,24.24-21.48,43.86-46.23,43.86h-164.96c-2.65,0-4.79-2.15-4.79-4.79v-21.5c0-2.65,2.15-4.79,4.79-4.79h164.63c8.42,0,15.81-6.88,15.77-15.3-.05-8.56-7.08-15.35-15.43-15.35h-123.46c-25.35,0-46.3-20.72-46.3-46.3S1060.46,0,1085.82,0h87.79c2.65,0,4.79,2.15,4.79,4.79v21.28c0,2.65-2.15,4.79-4.79,4.79h-87.29c-8.15,0-15.27,6.1-15.89,14.22Z"/>
    <path class="cls-3" d="M694.44,1.2h-137.67c-27.04,0-49.16,22.12-49.16,49.16v53.96c0,27.04,22.12,49.16,49.16,49.16h137.67c2.07,0,3.75-1.68,3.75-3.75v-23.14c0-2.07-1.68-3.75-3.75-3.75h-137.67c-10.31,0-18.74-8.43-18.74-18.74v-10.97h156.41c2.07,0,3.75-1.68,3.75-3.75v-23.14c0-2.07-1.68-3.75-3.75-3.75h-156.41v-11.93c0-10.31,8.43-18.74,18.74-18.74h137.67c2.07,0,3.75-1.68,3.75-3.75V4.95c0-2.07-1.68-3.75-3.75-3.75Z"/>
  </g>
  <g>
    <rect class="cls-1" x="-443.18" y="-26.21" width="262.34" height="262.34" rx="40.76" ry="40.76"/>
    <g class="cls-4">
      <path class="cls-2" d="M-1003.68-384.55V686.59H473.8V-384.55H-1003.68Z"/>
    </g>
  </g>
</svg>